<mxfile host="app.diagrams.net" agent="Mozilla/5.0 (Windows NT 10.0; Win64; x64) AppleWebKit/537.36 (KHTML, like Gecko) Chrome/136.0.0.0 Safari/537.36 Edg/136.0.0.0" version="27.0.9">
  <diagram name="Страница — 1" id="rTm5sAzOZ5KVP_FaI0Hf">
    <mxGraphModel dx="1068" dy="500" grid="1" gridSize="10" guides="1" tooltips="1" connect="1" arrows="1" fold="1" page="1" pageScale="1" pageWidth="9000" pageHeight="1600" math="0" shadow="0">
      <root>
        <mxCell id="0" />
        <mxCell id="1" parent="0" />
        <mxCell id="2CMjmWMvwEsXD0Z7woIz-1" value="Users" style="rounded=0;whiteSpace=wrap;html=1;" parent="1" vertex="1">
          <mxGeometry x="1040" y="360" width="210" height="40" as="geometry" />
        </mxCell>
        <mxCell id="2CMjmWMvwEsXD0Z7woIz-2" value="&lt;font style=&quot;font-size: 18px;&quot;&gt;- type: string&lt;/font&gt;&lt;div&gt;&lt;font size=&quot;3&quot;&gt;-login: string&lt;/font&gt;&lt;/div&gt;&lt;div&gt;&lt;font size=&quot;3&quot;&gt;-password: string&lt;/font&gt;&lt;/div&gt;&lt;div&gt;&lt;font size=&quot;3&quot;&gt;-firstname: string&lt;/font&gt;&lt;/div&gt;&lt;div&gt;&lt;font size=&quot;3&quot;&gt;-lastname&lt;span style=&quot;background-color: transparent; color: light-dark(rgb(0, 0, 0), rgb(255, 255, 255));&quot;&gt;: string&lt;/span&gt;&lt;/font&gt;&lt;/div&gt;&lt;div&gt;&lt;font size=&quot;3&quot;&gt;&lt;span style=&quot;background-color: transparent; color: light-dark(rgb(0, 0, 0), rgb(255, 255, 255));&quot;&gt;-middlename&lt;/span&gt;&lt;span style=&quot;background-color: transparent; color: light-dark(rgb(0, 0, 0), rgb(255, 255, 255));&quot;&gt;: string&lt;/span&gt;&lt;/font&gt;&lt;/div&gt;" style="rounded=0;whiteSpace=wrap;html=1;align=left;" parent="1" vertex="1">
          <mxGeometry x="1040" y="400" width="210" height="130" as="geometry" />
        </mxCell>
        <mxCell id="2CMjmWMvwEsXD0Z7woIz-3" value="&lt;font style=&quot;font-size: 18px;&quot;&gt;-authentication():&lt;/font&gt;&lt;div&gt;&lt;font size=&quot;3&quot;&gt;-addendum():&lt;/font&gt;&lt;/div&gt;&lt;div&gt;&lt;font size=&quot;3&quot;&gt;-removal():&lt;/font&gt;&lt;/div&gt;&lt;div&gt;&lt;font size=&quot;3&quot;&gt;-RoleAssignment():&lt;/font&gt;&lt;/div&gt;" style="rounded=0;whiteSpace=wrap;html=1;align=left;" parent="1" vertex="1">
          <mxGeometry x="1040" y="530" width="210" height="90" as="geometry" />
        </mxCell>
        <mxCell id="2CMjmWMvwEsXD0Z7woIz-7" value="Section" style="rounded=0;whiteSpace=wrap;html=1;" parent="1" vertex="1">
          <mxGeometry x="1340" y="360" width="220" height="40" as="geometry" />
        </mxCell>
        <mxCell id="2CMjmWMvwEsXD0Z7woIz-8" value="&lt;span style=&quot;font-size: 18px;&quot;&gt;-currentPraticipation():&lt;/span&gt;&lt;div&gt;&lt;span style=&quot;font-size: 18px;&quot;&gt;-trainings():&lt;/span&gt;&lt;/div&gt;&lt;div&gt;&lt;span style=&quot;font-size: 18px;&quot;&gt;-event():&lt;/span&gt;&lt;/div&gt;" style="rounded=0;whiteSpace=wrap;html=1;align=left;" parent="1" vertex="1">
          <mxGeometry x="1340" y="510" width="220" height="90" as="geometry" />
        </mxCell>
        <mxCell id="2CMjmWMvwEsXD0Z7woIz-9" value="&lt;span style=&quot;font-size: 18px;&quot;&gt;- type: string&lt;/span&gt;&lt;div&gt;&lt;span style=&quot;font-size: 18px;&quot;&gt;- coach:string&lt;br&gt;&lt;/span&gt;&lt;div&gt;&lt;span style=&quot;&quot;&gt;&lt;span style=&quot;font-size: 18px;&quot;&gt;-schedule: date&lt;/span&gt;&lt;/span&gt;&lt;/div&gt;&lt;div&gt;&lt;span style=&quot;&quot;&gt;&lt;span style=&quot;font-size: 18px;&quot;&gt;-maxParticipants: uint&lt;/span&gt;&lt;/span&gt;&lt;/div&gt;&lt;/div&gt;" style="rounded=0;whiteSpace=wrap;html=1;align=left;" parent="1" vertex="1">
          <mxGeometry x="1340" y="400" width="220" height="110" as="geometry" />
        </mxCell>
        <mxCell id="QNScMhB93PYhbWheJ2bt-3" value="&amp;nbsp;trainigs" style="whiteSpace=wrap;html=1;" vertex="1" parent="1">
          <mxGeometry x="1910" y="310" width="220" height="40" as="geometry" />
        </mxCell>
        <mxCell id="QNScMhB93PYhbWheJ2bt-4" value="&lt;font style=&quot;font-size: 18px;&quot;&gt;-status: string&lt;/font&gt;" style="rounded=0;whiteSpace=wrap;html=1;align=left;" vertex="1" parent="1">
          <mxGeometry x="1910" y="350" width="220" height="30" as="geometry" />
        </mxCell>
        <mxCell id="QNScMhB93PYhbWheJ2bt-5" value="&lt;font style=&quot;font-size: 18px;&quot;&gt;-attendances():&lt;/font&gt;" style="rounded=0;whiteSpace=wrap;html=1;align=left;" vertex="1" parent="1">
          <mxGeometry x="1910" y="380" width="220" height="40" as="geometry" />
        </mxCell>
        <mxCell id="QNScMhB93PYhbWheJ2bt-6" value="event" style="rounded=0;whiteSpace=wrap;html=1;" vertex="1" parent="1">
          <mxGeometry x="1930" y="490" width="220" height="40" as="geometry" />
        </mxCell>
        <mxCell id="QNScMhB93PYhbWheJ2bt-7" value="&lt;font style=&quot;font-size: 18px;&quot;&gt;-type: string&lt;/font&gt;&lt;div&gt;&lt;font size=&quot;3&quot;&gt;-status: string&lt;/font&gt;&lt;/div&gt;&lt;div&gt;&lt;font size=&quot;3&quot;&gt;-notes string:&amp;nbsp;&lt;/font&gt;&lt;/div&gt;" style="rounded=0;whiteSpace=wrap;html=1;align=left;" vertex="1" parent="1">
          <mxGeometry x="1930" y="530" width="220" height="60" as="geometry" />
        </mxCell>
        <mxCell id="QNScMhB93PYhbWheJ2bt-8" value="supscriptions" style="rounded=0;whiteSpace=wrap;html=1;" vertex="1" parent="1">
          <mxGeometry x="1620" y="120" width="220" height="40" as="geometry" />
        </mxCell>
        <mxCell id="QNScMhB93PYhbWheJ2bt-9" value="StartDate:date" style="rounded=0;whiteSpace=wrap;html=1;" vertex="1" parent="1">
          <mxGeometry x="1620" y="160" width="220" height="60" as="geometry" />
        </mxCell>
      </root>
    </mxGraphModel>
  </diagram>
</mxfile>
